<svg version="1.2" xmlns="http://www.w3.org/2000/svg" viewBox="0 0 720 459" width="720" height="459">
	<title>initials</title>
	<style>
		.s0 { fill: #000000 } 
	</style>
	<path id="SH" class="s0" aria-label="SH"  d="m457.9 10.2l1.4 4.5q0.5 2.9 0.5 6.4 0 31.2-67.8 116.3-21.5 22.3-61.8 63.8-5.1 17.9-10.2 46.6-4.3 33.6-8.5 66.8-6.5 43.5-21.9 67.8-40.3 63.3-121.6 69.8-40.3 3-63.6-14.9-17.8-13.8-29-32.1-14.5 10.9-41.6 32.1-3.8 3.5-9.9 0-5.1-2.9-0.4-5.9 7.9-6.4 23.3-19.8 15.5-13.9 23.4-19.8-4.6-24.3 5.2-43.6 14.9-29.7 49.5-38.1 24.4-5.9 58-1 10.8-6.9 29.5-20.7 16.8-13.9 49.1-43.6 17.8-15.8 50.5-46.5 22.5-78.2 39.3-109.4 30.9-56.4 87-80.7 1.8-1 7.9-2.5 9.4-2.9 11.7 4.5zm-21 21.3q-22.9 2-45.9 32.2-32.7 42.5-49.1 100.9l-2.8 9.9q15.9-15.3 41.2-42.5 18.2-21.8 37.9-55.5 19.6-34.1 19.6-43 0-1.5-0.9-2zm-128.2 187.6l-7.9 7.4q-10.3 8.4-27.6 25.2-38.4 35.2-72 61.9 2.8 1.5 8.4 4 7.5 5.4 6.1 8.9-3.3 8.4-14.1 3.9-7-1.5-19.1-3.4-30.9 23.2-92.2 67.8 8.5 22.7 25.3 34.6 15.4 10.9 40.2 10.9 22.9 0 44.4-8.4 43.1-16.8 66.4-50 17.8-25.2 26.7-64.8 6.1-33.2 12.2-65.9 0 6 3.2-32.1zm-144 105.4q-22.5 0-27.1 1-46.3 9.4-49.1 52.9 25.2-17.8 76.2-53.9zm274.7-314.3l1.4 4.5q0.5 2.9 0.5 6.4 0 31.2-67.8 116.3-21.5 22.3-61.8 63.8-5.1 17.9-10.2 46.6-4.2 33.6-8.5 66.8-6.5 43.5-21.9 67.8-40.3 63.3-121.6 69.8-40.2 3-63.6-14.9-17.8-13.8-29-32.1-14.5 10.9-41.6 32.1-3.8 3.5-9.9 0-5.1-2.9-0.4-5.9 7.9-6.4 23.3-19.8 15.5-13.9 23.4-19.8-4.6-24.3 5.2-43.6 14.9-29.7 49.5-38.1 24.4-5.9 58-1 10.8-6.9 29.5-20.7 16.8-13.9 49.1-43.6 17.8-15.8 50.5-46.5 22.5-78.2 39.3-109.4 30.9-56.4 87-80.7 1.8-1 7.9-2.5 9.4-2.9 11.7 4.5zm-21 21.3q-22.9 2-45.9 32.2-32.7 42.5-49.1 100.9l-2.8 9.9q15.9-15.3 41.2-42.5 18.2-21.8 37.9-55.5 19.6-34.1 19.6-43 0-1.5-0.9-2zm-128.2 187.6l-7.9 7.4q-10.3 8.4-27.6 25.2-38.4 35.2-72 61.9 2.8 1.5 8.4 4 7.5 5.4 6.1 8.9-3.3 8.4-14.1 3.9-7-1.5-19.1-3.4-30.9 23.2-92.2 67.8 8.5 22.7 25.3 34.6 15.4 10.9 40.2 10.9 22.9 0 44.4-8.4 43.1-16.8 66.4-50 17.8-25.2 26.7-64.8 6.1-33.2 12.2-65.9 0 6 3.2-32.1zm-144 105.4q-22.4 0-27.1 1-46.3 9.4-49.1 52.9 25.2-17.8 76.2-53.9zm571.1-217.9q2.5 2.2-4.4 8.1-53.3 44.2-113.2 137.6 2.9-1.1 8.4-3.6 2.9-0.8 6.2 0.7 0.7 1.1-1.5 5.8-7.6 4.1-23.3 11.7-7 10.2-24.5 36.2-50.7 75.5-77.4 134.3-5.1 11.3-14.2 10.3-8.1-1.1-4.4-9.2 3.6-8.4 6.2-12.8 25.5-77.7 23-127.4-11.3 0.8-18.6-1.1-53 89.1-107.7 130.7-26.7 20.1-46.8 20.1-35.4 0-35.4-34.7 0-16 8-35.4 0-4.7 5.2-4.7 5.1 0 3.6 5.4-2.9 28.2 0.4 38 3.6 11.3 21.5 11.3 4.8 0 9.5-1.4 48.9-14.6 94.9-81.8 11.7-17.2 35.1-51.1-0.4-0.4-1.1-0.4-15-6.9-15-21.2 0-8.4 7.3-16.4 7.3-8 21.6-7.7 6.5 0 12.4 3.7 18.6-33.6 28.1-64.3 4.7-15.7 4.7-28.4 0-20.9-12.4-35.8-11.3-13.5-34.7-13.5-22.2 0-41.9 14.9-2.6 1.5-3.7 0.8-3.7-1.9 0-4.8 19.4-20.4 50.8-20.4 33.9 0 46.7 20.4 9.5 15.3 9.5 32.1 0 12.1-4.4 26.7-12.1 40.5-34.3 80.7 3.6 5.5 5.1 11.3 1.4 5.8 2.2 11.7 19.3-2.2 42.3-12.1 15.7-6.9 26.7-10.9 36.9-54.8 57.3-80.3 35.8-44.2 74.1-72 5.5-2.5 8.1-1.1zm-230.1 154.8q-2.5-1.8-4.7-1.8-8.4 0-11.3 4.8-2.9 4.3-1.5 9.5 1.5 5.1 6.2 6.9 5.5-8 11.3-19.4zm10.6 23q0.4-2.9-0.3-6.9-0.8-4-2.2-6.6-1.9 3.3-5.5 9.5-0.7 1.1-2.2 3.7h0.7q3 0.3 9.5 0.3zm68.7-6.9q-33.6 15-57 19 1.5 44.9-6.9 77.8 20.1-32.9 50-77.1 4.4-6.2 13.9-19.7zm136.3-170.9q2.6 2.2-4.4 8.1-53.3 44.2-113.1 137.6 2.9-1.1 8.3-3.6 3-0.8 6.3 0.7 0.7 1.1-1.5 5.8-7.7 4.1-23.4 11.7-6.9 10.2-24.4 36.2-50.8 75.5-77.4 134.3-5.1 11.3-14.3 10.3-8-1.1-4.4-9.2 3.7-8.4 6.2-12.8 25.6-77.7 23-127.4-11.3 0.8-18.6-1.1-52.9 89.1-107.7 130.7-26.6 20.1-46.7 20.1-35.4 0-35.4-34.7 0-16 8-35.4 0-4.7 5.1-4.7 5.1 0 3.7 5.4-3 28.2 0.3 38 3.7 11.3 21.6 11.3 4.7 0 9.5-1.4 48.9-14.6 94.9-81.8 11.7-17.2 35-51.1-0.3-0.4-1-0.4-15-6.9-15-21.2 0-8.4 7.3-16.4 7.3-8 21.5-7.7 6.6 0 12.4 3.7 18.7-33.6 28.2-64.3 4.7-15.7 4.7-28.4 0-20.9-12.4-35.8-11.3-13.5-34.7-13.5-22.3 0-42 14.9-2.5 1.5-3.6 0.8-3.7-1.9 0-4.8 19.3-20.4 50.7-20.4 34 0 46.7 20.4 9.5 15.3 9.5 32.1 0 12.1-4.3 26.7-12.1 40.5-34.4 80.7 3.7 5.5 5.1 11.3 1.5 5.8 2.2 11.7 19.4-2.2 42.4-12.1 15.7-6.9 26.6-10.9 36.9-54.8 57.4-80.3 35.7-44.2 74.1-72 5.5-2.5 8-1.1zm-230 154.8q-2.6-1.8-4.7-1.8-8.4 0-11.4 4.8-2.9 4.3-1.4 9.5 1.4 5.1 6.2 6.9 5.5-8 11.3-19.4zm10.6 23q0.3-2.9-0.4-6.9-0.7-4-2.2-6.6-1.8 3.3-5.4 9.5-0.8 1.1-2.2 3.7h0.7q2.9 0.3 9.5 0.3zm68.6-6.9q-33.6 15-56.9 19 1.4 44.9-7 77.8 20.1-32.9 50.1-77.1 4.3-6.2 13.8-19.7z"/>
</svg>